<svg xmlns="http://www.w3.org/2000/svg" width="375" viewBox="0 0 375 375" height="375" version="1.0"><defs><clipPath id="a"><path d="M 165.132812 135.996094 L 225.882812 135.996094 L 225.882812 196.746094 L 165.132812 196.746094 Z M 165.132812 135.996094"/></clipPath></defs><g clip-path="url(#a)"><path fill="#79A5F2" d="M 225.882812 166.371094 C 225.882812 167.367188 225.832031 168.359375 225.734375 169.347656 C 225.636719 170.339844 225.492188 171.320312 225.296875 172.296875 C 225.105469 173.273438 224.863281 174.238281 224.574219 175.1875 C 224.285156 176.140625 223.949219 177.074219 223.570312 177.996094 C 223.1875 178.914062 222.765625 179.8125 222.296875 180.691406 C 221.824219 181.566406 221.316406 182.417969 220.761719 183.246094 C 220.210938 184.074219 219.617188 184.871094 218.988281 185.640625 C 218.355469 186.410156 217.6875 187.144531 216.984375 187.847656 C 216.28125 188.554688 215.546875 189.21875 214.777344 189.851562 C 214.007812 190.484375 213.210938 191.074219 212.382812 191.628906 C 211.554688 192.179688 210.703125 192.691406 209.824219 193.160156 C 208.949219 193.628906 208.050781 194.054688 207.128906 194.433594 C 206.210938 194.816406 205.277344 195.148438 204.324219 195.4375 C 203.371094 195.726562 202.40625 195.96875 201.433594 196.164062 C 200.457031 196.355469 199.472656 196.503906 198.484375 196.601562 C 197.492188 196.699219 196.5 196.746094 195.507812 196.746094 C 194.511719 196.746094 193.519531 196.699219 192.53125 196.601562 C 191.539062 196.503906 190.554688 196.355469 189.582031 196.164062 C 188.605469 195.96875 187.640625 195.726562 186.6875 195.4375 C 185.738281 195.148438 184.800781 194.816406 183.882812 194.433594 C 182.964844 194.054688 182.066406 193.628906 181.1875 193.160156 C 180.3125 192.691406 179.457031 192.179688 178.632812 191.628906 C 177.804688 191.074219 177.007812 190.484375 176.238281 189.851562 C 175.46875 189.21875 174.730469 188.554688 174.027344 187.847656 C 173.324219 187.144531 172.65625 186.410156 172.027344 185.640625 C 171.394531 184.871094 170.804688 184.074219 170.25 183.246094 C 169.699219 182.417969 169.1875 181.566406 168.71875 180.691406 C 168.25 179.8125 167.824219 178.914062 167.445312 177.996094 C 167.0625 177.074219 166.726562 176.140625 166.441406 175.1875 C 166.152344 174.238281 165.910156 173.273438 165.714844 172.296875 C 165.519531 171.320312 165.375 170.339844 165.277344 169.347656 C 165.179688 168.359375 165.132812 167.367188 165.132812 166.371094 C 165.132812 165.375 165.179688 164.382812 165.277344 163.394531 C 165.375 162.402344 165.519531 161.421875 165.714844 160.445312 C 165.910156 159.46875 166.152344 158.503906 166.441406 157.554688 C 166.726562 156.601562 167.0625 155.667969 167.445312 154.746094 C 167.824219 153.828125 168.25 152.929688 168.71875 152.050781 C 169.1875 151.175781 169.699219 150.324219 170.25 149.496094 C 170.804688 148.667969 171.394531 147.871094 172.027344 147.101562 C 172.65625 146.332031 173.324219 145.597656 174.027344 144.894531 C 174.730469 144.1875 175.46875 143.523438 176.238281 142.890625 C 177.007812 142.261719 177.804688 141.667969 178.632812 141.117188 C 179.457031 140.5625 180.3125 140.050781 181.1875 139.582031 C 182.066406 139.113281 182.964844 138.6875 183.882812 138.308594 C 184.800781 137.925781 185.738281 137.59375 186.6875 137.304688 C 187.640625 137.015625 188.605469 136.773438 189.582031 136.578125 C 190.554688 136.386719 191.539062 136.238281 192.53125 136.140625 C 193.519531 136.046875 194.511719 135.996094 195.507812 135.996094 C 196.5 135.996094 197.492188 136.046875 198.484375 136.140625 C 199.472656 136.238281 200.457031 136.386719 201.433594 136.578125 C 202.40625 136.773438 203.371094 137.015625 204.324219 137.304688 C 205.277344 137.59375 206.210938 137.925781 207.128906 138.308594 C 208.050781 138.6875 208.949219 139.113281 209.824219 139.582031 C 210.703125 140.050781 211.554688 140.5625 212.382812 141.117188 C 213.210938 141.667969 214.007812 142.261719 214.777344 142.890625 C 215.546875 143.523438 216.28125 144.1875 216.984375 144.894531 C 217.6875 145.597656 218.355469 146.332031 218.988281 147.101562 C 219.617188 147.871094 220.210938 148.667969 220.761719 149.496094 C 221.316406 150.324219 221.824219 151.175781 222.296875 152.050781 C 222.765625 152.929688 223.1875 153.828125 223.570312 154.746094 C 223.949219 155.667969 224.285156 156.601562 224.574219 157.554688 C 224.863281 158.503906 225.105469 159.46875 225.296875 160.445312 C 225.492188 161.421875 225.636719 162.402344 225.734375 163.394531 C 225.832031 164.382812 225.882812 165.375 225.882812 166.371094 Z M 225.882812 166.371094"/></g><path fill="#FFF" d="M 198.089844 170.777344 L 193.746094 170.777344 C 191.40625 170.777344 189.492188 168.863281 189.492188 166.523438 L 189.492188 153.007812 C 189.492188 150.667969 191.40625 148.753906 193.746094 148.753906 L 198.089844 148.753906 C 200.425781 148.753906 202.339844 150.667969 202.339844 153.007812 L 202.339844 166.523438 C 202.339844 168.863281 200.425781 170.777344 198.089844 170.777344 Z M 198.089844 170.777344"/><path fill="#FFF" d="M 195.902344 175.9375 C 189.554688 175.9375 184.144531 170.746094 184.117188 164.09375 C 184.117188 163.363281 184.691406 162.757812 185.453125 162.757812 C 186.179688 162.757812 186.789062 163.332031 186.789062 164.09375 C 186.820312 169.289062 190.980469 173.480469 195.902344 173.480469 C 200.820312 173.480469 205.015625 169.015625 205.042969 163.972656 C 205.042969 163.242188 205.652344 162.757812 206.378906 162.757812 C 207.109375 162.757812 207.71875 163.152344 207.71875 163.878906 C 207.6875 170.472656 202.371094 175.9375 195.902344 175.9375 Z M 195.902344 175.9375"/><path fill="#FFF" d="M 195.933594 183.015625 C 195.234375 183.015625 194.6875 182.257812 194.6875 181.558594 L 194.65625 174.695312 C 194.65625 173.996094 195.203125 173.601562 195.902344 173.601562 C 196.601562 173.601562 197.148438 173.902344 197.148438 174.574219 L 197.175781 181.679688 C 197.175781 182.378906 196.601562 183.015625 195.933594 183.015625 Z M 195.933594 183.015625"/><path fill="#FFF" d="M 202.128906 184.230469 L 189.582031 184.230469 C 189.007812 184.230469 188.550781 183.804688 188.550781 183.167969 C 188.550781 182.53125 189.007812 182.105469 189.582031 182.105469 L 202.128906 182.105469 C 202.707031 182.105469 203.160156 182.53125 203.160156 183.167969 C 203.160156 183.804688 202.707031 184.230469 202.128906 184.230469 Z M 202.128906 184.230469"/></svg>