<svg xmlns="http://www.w3.org/2000/svg" width="375" viewBox="0 0 375 375" height="375" version="1.0"><g fill="#43F"><g><g><path d="M 9.234375 0 C 15.546875 0 16.109375 -5.839844 20.160156 -28.359375 C 20.539062 -20.820312 21.480469 -2.828125 28.828125 -3.203125 C 41.359375 -3.578125 43.054688 -54.453125 43.433594 -65.855469 C 43.433594 -66.890625 42.585938 -67.738281 41.546875 -67.738281 C 40.511719 -67.738281 39.664062 -66.890625 39.664062 -65.855469 C 39.285156 -46.257812 35.425781 -6.972656 28.734375 -6.972656 C 28.640625 -6.972656 28.453125 -6.972656 28.074219 -7.347656 C 24.402344 -11.023438 23.648438 -28.546875 23.648438 -40.132812 C 23.648438 -43.902344 23.742188 -47.011719 23.835938 -48.894531 C 23.929688 -50.027344 23.082031 -50.875 21.953125 -50.875 C 20.914062 -50.875 20.351562 -50.402344 20.066406 -49.367188 C 12.53125 -7.914062 12.53125 -3.769531 9.136719 -3.769531 C 5.839844 -3.769531 4.617188 -12.8125 4.617188 -24.496094 C 4.617188 -37.589844 6.21875 -53.511719 7.914062 -62.179688 C 8.195312 -63.3125 7.347656 -64.441406 6.125 -64.441406 C 5.277344 -64.441406 4.523438 -63.96875 4.238281 -62.933594 C 2.730469 -55.960938 0.847656 -39.097656 0.847656 -24.777344 C 0.847656 -20.914062 0.941406 -17.335938 1.320312 -14.039062 C 1.789062 -8.386719 3.484375 0 9.042969 0 Z M 9.234375 0" transform="translate(76.062 216.267)"/></g></g></g><g fill="#43F"><g><g><path d="M 14.980469 -17.617188 C 16.394531 -20.160156 17.242188 -23.082031 17.242188 -26.003906 C 18.277344 -25.8125 19.3125 -25.71875 20.539062 -25.71875 C 22.707031 -25.71875 25.058594 -26.097656 27.605469 -26.757812 C 28.546875 -27.039062 29.015625 -27.699219 29.015625 -28.734375 L 29.015625 -29.113281 C 28.734375 -29.867188 27.980469 -30.523438 27.132812 -30.523438 C 26.851562 -30.523438 26.945312 -30.429688 26.664062 -30.429688 C 24.496094 -29.769531 22.515625 -29.488281 20.632812 -29.488281 C 19.125 -29.488281 17.804688 -29.769531 16.675781 -30.054688 C 15.921875 -33.445312 12.8125 -38.53125 9.234375 -38.0625 C 8.949219 -38.25 8.574219 -38.34375 8.195312 -38.34375 C 7.726562 -38.34375 7.253906 -38.25 6.972656 -37.96875 C 4.238281 -35.613281 2.167969 -32.597656 1.128906 -28.921875 C 0.472656 -26.851562 0.1875 -24.871094 0.1875 -22.988281 C 0.1875 -16.582031 3.769531 -12.53125 7.820312 -12.53125 C 10.363281 -12.53125 12.8125 -14.132812 14.980469 -17.617188 Z M 11.683594 -19.597656 C 10.269531 -17.335938 8.949219 -16.203125 7.726562 -16.203125 C 5.558594 -16.203125 4.050781 -19.3125 4.050781 -23.363281 C 4.050781 -26.378906 4.992188 -29.960938 7.347656 -32.972656 C 8.195312 -30.808594 10.269531 -28.640625 13.378906 -27.226562 C 13.378906 -26.851562 13.472656 -26.472656 13.472656 -26.003906 C 13.472656 -23.648438 12.71875 -21.386719 11.683594 -19.597656 Z M 11.683594 -19.597656" transform="translate(121.752 216.267)"/></g></g></g><g fill="#43F"><g><g><path d="M 1.882812 -13.285156 C 2.921875 -13.285156 3.769531 -14.039062 3.769531 -15.074219 C 4.238281 -25.15625 14.039062 -36.273438 18.9375 -35.328125 C 19.972656 -35.046875 20.820312 -35.707031 21.105469 -36.742188 C 21.386719 -37.777344 20.726562 -38.722656 19.691406 -39.003906 C 19.03125 -39.097656 18.558594 -39.191406 18.183594 -39.191406 C 12.90625 -39.191406 7.347656 -33.070312 4.617188 -28.546875 C 4.898438 -31.277344 4.992188 -34.105469 4.992188 -37.027344 C 4.992188 -38.0625 4.144531 -38.910156 3.109375 -38.910156 C 2.074219 -38.910156 1.226562 -38.0625 1.226562 -37.027344 C 1.128906 -29.867188 0.09375 -22.609375 0 -15.167969 C 0 -14.132812 0.847656 -13.378906 1.882812 -13.285156 Z M 1.882812 -13.285156" transform="translate(146.527 216.267)"/></g></g></g><g fill="#43F"><g><g><path d="M 27.886719 0 C 28.921875 -0.09375 29.582031 -0.847656 29.582031 -1.882812 L 29.582031 -2.074219 C 28.359375 -13.09375 27.886719 -26.945312 27.886719 -39.003906 L 27.886719 -44.65625 C 29.113281 -49.648438 31.089844 -58.410156 31.089844 -62.933594 C 31.089844 -64.816406 30.808594 -66.042969 30.242188 -66.703125 C 29.769531 -67.363281 29.015625 -67.738281 28.167969 -67.738281 C 27.511719 -67.738281 26.945312 -67.457031 26.566406 -66.984375 C 24.402344 -64.535156 24.117188 -48.992188 24.117188 -45.128906 C 21.761719 -35.234375 18.371094 -25.8125 10.457031 -18.75 C 8.574219 -17.050781 6.972656 -16.203125 5.558594 -16.203125 C 3.578125 -16.203125 2.542969 -18.089844 2.542969 -20.726562 C 2.542969 -26.472656 7.253906 -35.046875 17.429688 -34.765625 C 18.464844 -34.671875 19.3125 -35.519531 19.3125 -36.554688 C 19.40625 -37.589844 18.558594 -38.4375 17.523438 -38.53125 C 5.277344 -38.816406 -1.226562 -28.640625 -1.226562 -20.726562 C -1.226562 -16.203125 1.035156 -12.53125 5.652344 -12.53125 C 13.191406 -12.53125 21.199219 -25.15625 24.117188 -32.316406 C 24.402344 -21.007812 24.777344 -10.269531 25.8125 -1.695312 C 25.910156 -0.566406 26.566406 0 27.699219 0 Z M 27.886719 0" transform="translate(168.289 216.267)"/></g></g></g><g fill="#43F"><g><g><path d="M 2.355469 -13.191406 C 3.203125 -12.71875 4.050781 -12.4375 4.898438 -12.4375 C 10.738281 -12.4375 16.957031 -22.046875 19.972656 -27.605469 C 20.066406 -27.980469 20.160156 -28.265625 20.160156 -28.453125 C 20.160156 -29.113281 19.878906 -29.675781 19.21875 -30.148438 C 18.84375 -30.242188 18.558594 -30.335938 18.371094 -30.335938 C 17.617188 -30.335938 17.050781 -30.054688 16.582031 -29.394531 C 12.71875 -22.515625 7.820312 -16.296875 4.992188 -16.296875 C 4.710938 -16.296875 4.523438 -16.394531 4.238281 -16.488281 C 3.578125 -16.863281 3.296875 -17.804688 3.296875 -19.40625 C 3.296875 -24.210938 6.21875 -33.351562 6.972656 -35.800781 C 7.253906 -36.835938 6.6875 -37.875 5.652344 -38.15625 C 4.617188 -38.4375 3.578125 -37.777344 3.296875 -36.742188 C 1.789062 -31.183594 -0.375 -24.589844 -0.375 -19.597656 C -0.375 -16.675781 0.375 -14.414062 2.355469 -13.191406 Z M 7.632812 -43.433594 C 8.574219 -43.433594 9.136719 -43.902344 9.421875 -44.75 L 10.269531 -47.578125 C 10.644531 -48.992188 9.515625 -49.933594 8.386719 -49.933594 C 7.632812 -49.933594 6.878906 -49.554688 6.59375 -48.519531 L 6.21875 -47.199219 L 5.839844 -45.789062 C 5.558594 -44.65625 6.21875 -43.433594 7.632812 -43.433594 Z M 7.632812 -43.433594" transform="translate(202.485 216.267)"/></g></g></g><g fill="#43F"><g><g><path d="M 9.890625 -12.625 C 16.015625 -12.625 23.648438 -16.109375 30.617188 -27.605469 C 30.808594 -27.886719 30.902344 -28.167969 30.902344 -28.640625 C 30.902344 -29.300781 30.617188 -29.867188 29.960938 -30.242188 C 29.769531 -30.335938 29.488281 -30.429688 29.113281 -30.429688 C 28.359375 -30.429688 27.792969 -30.148438 27.414062 -29.582031 C 21.386719 -19.597656 14.601562 -16.203125 9.796875 -16.203125 C 6.3125 -16.203125 3.957031 -17.804688 3.296875 -19.972656 C 3.109375 -20.632812 3.015625 -21.292969 3.015625 -22.046875 C 3.015625 -27.792969 8.949219 -34.765625 11.871094 -34.765625 C 12.53125 -34.765625 12.90625 -34.480469 13.191406 -33.917969 L 13.191406 -33.632812 C 13.09375 -33.257812 13 -32.972656 13 -32.878906 C 13 -32.125 13.378906 -31.5625 14.132812 -31.089844 C 14.507812 -30.996094 14.792969 -30.902344 14.886719 -30.902344 C 15.640625 -30.902344 16.203125 -31.277344 16.675781 -32.125 C 16.957031 -32.597656 17.050781 -33.164062 17.050781 -33.820312 C 17.050781 -36.367188 14.601562 -38.53125 11.871094 -38.53125 C 5.558594 -38.53125 -0.660156 -29.300781 -0.660156 -21.761719 C -0.660156 -16.769531 2.167969 -12.625 9.890625 -12.625 Z M 9.890625 -12.625" transform="translate(218.123 216.267)"/></g></g></g><g fill="#43F"><g><g><path d="M 14.980469 -17.617188 C 16.394531 -20.160156 17.242188 -23.082031 17.242188 -26.003906 C 18.277344 -25.8125 19.3125 -25.71875 20.539062 -25.71875 C 22.707031 -25.71875 25.058594 -26.097656 27.605469 -26.757812 C 28.546875 -27.039062 29.015625 -27.699219 29.015625 -28.734375 L 29.015625 -29.113281 C 28.734375 -29.867188 27.980469 -30.523438 27.132812 -30.523438 C 26.851562 -30.523438 26.945312 -30.429688 26.664062 -30.429688 C 24.496094 -29.769531 22.515625 -29.488281 20.632812 -29.488281 C 19.125 -29.488281 17.804688 -29.769531 16.675781 -30.054688 C 15.921875 -33.445312 12.8125 -38.53125 9.234375 -38.0625 C 8.949219 -38.25 8.574219 -38.34375 8.195312 -38.34375 C 7.726562 -38.34375 7.253906 -38.25 6.972656 -37.96875 C 4.238281 -35.613281 2.167969 -32.597656 1.128906 -28.921875 C 0.472656 -26.851562 0.1875 -24.871094 0.1875 -22.988281 C 0.1875 -16.582031 3.769531 -12.53125 7.820312 -12.53125 C 10.363281 -12.53125 12.8125 -14.132812 14.980469 -17.617188 Z M 11.683594 -19.597656 C 10.269531 -17.335938 8.949219 -16.203125 7.726562 -16.203125 C 5.558594 -16.203125 4.050781 -19.3125 4.050781 -23.363281 C 4.050781 -26.378906 4.992188 -29.960938 7.347656 -32.972656 C 8.195312 -30.808594 10.269531 -28.640625 13.378906 -27.226562 C 13.378906 -26.851562 13.472656 -26.472656 13.472656 -26.003906 C 13.472656 -23.648438 12.71875 -21.386719 11.683594 -19.597656 Z M 11.683594 -19.597656" transform="translate(244.124 216.267)"/></g></g></g><g fill="#43F"><g><g><path d="M 1.882812 -12.625 C 2.730469 -12.625 3.296875 -13 3.578125 -13.847656 C 7.066406 -23.648438 11.210938 -33.917969 13.378906 -33.917969 C 13.753906 -33.917969 14.039062 -33.632812 14.320312 -32.972656 C 14.601562 -32.125 14.792969 -30.996094 14.792969 -29.582031 C 14.792969 -26.097656 14.132812 -21.667969 18.183594 -19.125 C 19.21875 -18.464844 20.351562 -18.089844 21.761719 -18.089844 C 26.757812 -18.089844 31.5625 -22.988281 34.386719 -27.605469 C 34.574219 -27.886719 34.671875 -28.167969 34.671875 -28.546875 C 34.671875 -29.300781 34.386719 -29.867188 33.726562 -30.148438 C 33.445312 -30.335938 33.070312 -30.429688 32.691406 -30.429688 C 32.03125 -30.429688 31.46875 -30.148438 31.183594 -29.488281 C 29.394531 -26.378906 25.25 -21.855469 21.953125 -21.855469 C 21.292969 -21.855469 20.726562 -22.046875 20.253906 -22.328125 C 18.089844 -23.742188 18.558594 -26.566406 18.558594 -29.675781 C 18.558594 -31.277344 18.464844 -32.972656 17.804688 -34.480469 C 16.957031 -36.648438 15.167969 -37.777344 13.191406 -37.777344 C 9.234375 -37.777344 7.066406 -32.785156 4.617188 -26.851562 C 4.992188 -30.523438 5.277344 -33.632812 5.652344 -36.273438 C 5.933594 -37.308594 5.085938 -38.34375 4.050781 -38.4375 C 3.015625 -38.722656 2.074219 -37.875 1.976562 -36.835938 C 0.941406 -29.582031 0.28125 -20.632812 0 -14.601562 C -0.09375 -13.566406 0.753906 -12.625 1.882812 -12.625 Z M 1.882812 -12.625" transform="translate(268.9 216.267)"/></g></g></g></svg>