<svg xmlns="http://www.w3.org/2000/svg" width="222.75" viewBox="0 0 222.75 69.75" height="69.75" version="1.0"><defs><clipPath id="a"><path d="M 188 28 L 222.226562 28 L 222.226562 55 L 188 55 Z M 188 28"/></clipPath></defs><g fill="#43F"><g><g><path d="M 8.921875 0 C 15.019531 0 15.566406 -5.644531 19.480469 -27.398438 C 19.84375 -20.117188 20.753906 -2.730469 27.855469 -3.09375 C 39.960938 -3.460938 41.597656 -52.613281 41.964844 -63.628906 C 41.964844 -64.628906 41.144531 -65.449219 40.144531 -65.449219 C 39.140625 -65.449219 38.324219 -64.628906 38.324219 -63.628906 C 37.957031 -44.695312 34.226562 -6.734375 27.761719 -6.734375 C 27.671875 -6.734375 27.492188 -6.734375 27.125 -7.101562 C 23.574219 -10.648438 22.847656 -27.582031 22.847656 -38.777344 C 22.847656 -42.417969 22.9375 -45.421875 23.03125 -47.242188 C 23.121094 -48.335938 22.300781 -49.15625 21.210938 -49.15625 C 20.207031 -49.15625 19.660156 -48.699219 19.390625 -47.699219 C 12.105469 -7.644531 12.105469 -3.640625 8.828125 -3.640625 C 5.644531 -3.640625 4.460938 -12.378906 4.460938 -23.667969 C 4.460938 -36.320312 6.007812 -51.703125 7.644531 -60.078125 C 7.917969 -61.171875 7.101562 -62.261719 5.917969 -62.261719 C 5.097656 -62.261719 4.371094 -61.808594 4.097656 -60.804688 C 2.640625 -54.070312 0.820312 -37.777344 0.820312 -23.941406 C 0.820312 -20.207031 0.910156 -16.75 1.273438 -13.5625 C 1.730469 -8.101562 3.367188 0 8.738281 0 Z M 8.921875 0" transform="translate(2.445 66.37)"/></g></g></g><g fill="#43F"><g><g><path d="M 14.472656 -17.023438 C 15.839844 -19.480469 16.65625 -22.300781 16.65625 -25.125 C 17.660156 -24.941406 18.660156 -24.851562 19.84375 -24.851562 C 21.9375 -24.851562 24.214844 -25.214844 26.671875 -25.851562 C 27.582031 -26.125 28.035156 -26.761719 28.035156 -27.761719 L 28.035156 -28.128906 C 27.761719 -28.855469 27.035156 -29.492188 26.214844 -29.492188 C 25.941406 -29.492188 26.035156 -29.402344 25.761719 -29.402344 C 23.667969 -28.765625 21.753906 -28.492188 19.933594 -28.492188 C 18.480469 -28.492188 17.203125 -28.765625 16.113281 -29.039062 C 15.382812 -32.316406 12.378906 -37.230469 8.921875 -36.773438 C 8.648438 -36.957031 8.285156 -37.046875 7.917969 -37.046875 C 7.464844 -37.046875 7.007812 -36.957031 6.734375 -36.683594 C 4.097656 -34.410156 2.09375 -31.496094 1.09375 -27.945312 C 0.457031 -25.941406 0.183594 -24.03125 0.183594 -22.210938 C 0.183594 -16.019531 3.640625 -12.105469 7.554688 -12.105469 C 10.011719 -12.105469 12.378906 -13.652344 14.472656 -17.023438 Z M 11.289062 -18.933594 C 9.921875 -16.75 8.648438 -15.65625 7.464844 -15.65625 C 5.371094 -15.65625 3.914062 -18.660156 3.914062 -22.574219 C 3.914062 -25.488281 4.824219 -28.945312 7.101562 -31.859375 C 7.917969 -29.765625 9.921875 -27.671875 12.925781 -26.308594 C 12.925781 -25.941406 13.015625 -25.578125 13.015625 -25.125 C 13.015625 -22.847656 12.289062 -20.664062 11.289062 -18.933594 Z M 11.289062 -18.933594" transform="translate(46.584 66.37)"/></g></g></g><g fill="#43F"><g><g><path d="M 1.820312 -12.835938 C 2.820312 -12.835938 3.640625 -13.5625 3.640625 -14.5625 C 4.097656 -24.304688 13.5625 -35.046875 18.296875 -34.136719 C 19.296875 -33.863281 20.117188 -34.5 20.390625 -35.5 C 20.664062 -36.503906 20.027344 -37.414062 19.023438 -37.683594 C 18.386719 -37.777344 17.933594 -37.867188 17.566406 -37.867188 C 12.472656 -37.867188 7.101562 -31.949219 4.460938 -27.582031 C 4.734375 -30.222656 4.824219 -32.953125 4.824219 -35.773438 C 4.824219 -36.773438 4.003906 -37.59375 3.003906 -37.59375 C 2.003906 -37.59375 1.183594 -36.773438 1.183594 -35.773438 C 1.09375 -28.855469 0.0898438 -21.847656 0 -14.65625 C 0 -13.652344 0.820312 -12.925781 1.820312 -12.835938 Z M 1.820312 -12.835938" transform="translate(70.52 66.37)"/></g></g></g><g fill="#43F"><g><g><path d="M 26.945312 0 C 27.945312 -0.0898438 28.582031 -0.820312 28.582031 -1.820312 L 28.582031 -2.003906 C 27.398438 -12.652344 26.945312 -26.035156 26.945312 -37.683594 L 26.945312 -43.148438 C 28.128906 -47.972656 30.039062 -56.4375 30.039062 -60.804688 C 30.039062 -62.625 29.765625 -63.808594 29.21875 -64.449219 C 28.765625 -65.085938 28.035156 -65.449219 27.21875 -65.449219 C 26.578125 -65.449219 26.035156 -65.175781 25.667969 -64.71875 C 23.574219 -62.355469 23.304688 -47.335938 23.304688 -43.601562 C 21.027344 -34.042969 17.75 -24.941406 10.105469 -18.113281 C 8.285156 -16.476562 6.734375 -15.65625 5.371094 -15.65625 C 3.460938 -15.65625 2.457031 -17.476562 2.457031 -20.027344 C 2.457031 -25.578125 7.007812 -33.863281 16.839844 -33.589844 C 17.839844 -33.5 18.660156 -34.316406 18.660156 -35.320312 C 18.75 -36.320312 17.933594 -37.140625 16.929688 -37.230469 C 5.097656 -37.503906 -1.183594 -27.671875 -1.183594 -20.027344 C -1.183594 -15.65625 1 -12.105469 5.460938 -12.105469 C 12.742188 -12.105469 20.480469 -24.304688 23.304688 -31.222656 C 23.574219 -20.300781 23.941406 -9.921875 24.941406 -1.636719 C 25.03125 -0.546875 25.667969 0 26.761719 0 Z M 26.945312 0" transform="translate(91.542 66.37)"/></g></g></g><g fill="#43F"><g><g><path d="M 2.277344 -12.742188 C 3.09375 -12.289062 3.914062 -12.015625 4.734375 -12.015625 C 10.378906 -12.015625 16.386719 -21.300781 19.296875 -26.671875 C 19.390625 -27.035156 19.480469 -27.308594 19.480469 -27.492188 C 19.480469 -28.128906 19.207031 -28.671875 18.570312 -29.128906 C 18.207031 -29.21875 17.933594 -29.3125 17.75 -29.3125 C 17.023438 -29.3125 16.476562 -29.039062 16.019531 -28.402344 C 12.289062 -21.753906 7.554688 -15.746094 4.824219 -15.746094 C 4.550781 -15.746094 4.371094 -15.839844 4.097656 -15.929688 C 3.460938 -16.292969 3.1875 -17.203125 3.1875 -18.75 C 3.1875 -23.394531 6.007812 -32.222656 6.734375 -34.589844 C 7.007812 -35.589844 6.464844 -36.59375 5.460938 -36.867188 C 4.460938 -37.140625 3.460938 -36.503906 3.1875 -35.5 C 1.730469 -30.128906 -0.363281 -23.757812 -0.363281 -18.933594 C -0.363281 -16.113281 0.363281 -13.925781 2.277344 -12.742188 Z M 7.375 -41.964844 C 8.285156 -41.964844 8.828125 -42.417969 9.101562 -43.238281 L 9.921875 -45.96875 C 10.285156 -47.335938 9.195312 -48.246094 8.101562 -48.246094 C 7.375 -48.246094 6.644531 -47.878906 6.371094 -46.878906 L 6.007812 -45.605469 L 5.644531 -44.238281 C 5.371094 -43.148438 6.007812 -41.964844 7.375 -41.964844 Z M 7.375 -41.964844" transform="translate(124.578 66.37)"/></g></g></g><g fill="#43F"><g><g><path d="M 9.558594 -12.199219 C 15.476562 -12.199219 22.847656 -15.566406 29.582031 -26.671875 C 29.765625 -26.945312 29.855469 -27.21875 29.855469 -27.671875 C 29.855469 -28.308594 29.582031 -28.855469 28.945312 -29.21875 C 28.765625 -29.3125 28.492188 -29.402344 28.128906 -29.402344 C 27.398438 -29.402344 26.851562 -29.128906 26.488281 -28.582031 C 20.664062 -18.933594 14.109375 -15.65625 9.46875 -15.65625 C 6.097656 -15.65625 3.824219 -17.203125 3.1875 -19.296875 C 3.003906 -19.933594 2.914062 -20.570312 2.914062 -21.300781 C 2.914062 -26.851562 8.648438 -33.589844 11.46875 -33.589844 C 12.105469 -33.589844 12.472656 -33.316406 12.742188 -32.769531 L 12.742188 -32.496094 C 12.652344 -32.132812 12.5625 -31.859375 12.5625 -31.769531 C 12.5625 -31.039062 12.925781 -30.496094 13.652344 -30.039062 C 14.019531 -29.949219 14.292969 -29.855469 14.382812 -29.855469 C 15.109375 -29.855469 15.65625 -30.222656 16.113281 -31.039062 C 16.386719 -31.496094 16.476562 -32.042969 16.476562 -32.679688 C 16.476562 -35.136719 14.109375 -37.230469 11.46875 -37.230469 C 5.371094 -37.230469 -0.636719 -28.308594 -0.636719 -21.027344 C -0.636719 -16.203125 2.09375 -12.199219 9.558594 -12.199219 Z M 9.558594 -12.199219" transform="translate(139.686 66.37)"/></g></g></g><g fill="#43F"><g><g><path d="M 14.472656 -17.023438 C 15.839844 -19.480469 16.65625 -22.300781 16.65625 -25.125 C 17.660156 -24.941406 18.660156 -24.851562 19.84375 -24.851562 C 21.9375 -24.851562 24.214844 -25.214844 26.671875 -25.851562 C 27.582031 -26.125 28.035156 -26.761719 28.035156 -27.761719 L 28.035156 -28.128906 C 27.761719 -28.855469 27.035156 -29.492188 26.214844 -29.492188 C 25.941406 -29.492188 26.035156 -29.402344 25.761719 -29.402344 C 23.667969 -28.765625 21.753906 -28.492188 19.933594 -28.492188 C 18.480469 -28.492188 17.203125 -28.765625 16.113281 -29.039062 C 15.382812 -32.316406 12.378906 -37.230469 8.921875 -36.773438 C 8.648438 -36.957031 8.285156 -37.046875 7.917969 -37.046875 C 7.464844 -37.046875 7.007812 -36.957031 6.734375 -36.683594 C 4.097656 -34.410156 2.09375 -31.496094 1.09375 -27.945312 C 0.457031 -25.941406 0.183594 -24.03125 0.183594 -22.210938 C 0.183594 -16.019531 3.640625 -12.105469 7.554688 -12.105469 C 10.011719 -12.105469 12.378906 -13.652344 14.472656 -17.023438 Z M 11.289062 -18.933594 C 9.921875 -16.75 8.648438 -15.65625 7.464844 -15.65625 C 5.371094 -15.65625 3.914062 -18.660156 3.914062 -22.574219 C 3.914062 -25.488281 4.824219 -28.945312 7.101562 -31.859375 C 7.917969 -29.765625 9.921875 -27.671875 12.925781 -26.308594 C 12.925781 -25.941406 13.015625 -25.578125 13.015625 -25.125 C 13.015625 -22.847656 12.289062 -20.664062 11.289062 -18.933594 Z M 11.289062 -18.933594" transform="translate(164.804 66.37)"/></g></g></g><g clip-path="url(#a)"><g fill="#43F"><g><g><path d="M 1.820312 -12.199219 C 2.640625 -12.199219 3.1875 -12.5625 3.460938 -13.382812 C 6.828125 -22.847656 10.832031 -32.769531 12.925781 -32.769531 C 13.289062 -32.769531 13.5625 -32.496094 13.835938 -31.859375 C 14.109375 -31.039062 14.292969 -29.949219 14.292969 -28.582031 C 14.292969 -25.214844 13.652344 -20.9375 17.566406 -18.480469 C 18.570312 -17.839844 19.660156 -17.476562 21.027344 -17.476562 C 25.851562 -17.476562 30.496094 -22.210938 33.226562 -26.671875 C 33.40625 -26.945312 33.5 -27.21875 33.5 -27.582031 C 33.5 -28.308594 33.226562 -28.855469 32.585938 -29.128906 C 32.316406 -29.3125 31.949219 -29.402344 31.585938 -29.402344 C 30.949219 -29.402344 30.402344 -29.128906 30.128906 -28.492188 C 28.402344 -25.488281 24.394531 -21.117188 21.210938 -21.117188 C 20.570312 -21.117188 20.027344 -21.300781 19.570312 -21.574219 C 17.476562 -22.9375 17.933594 -25.667969 17.933594 -28.671875 C 17.933594 -30.222656 17.839844 -31.859375 17.203125 -33.316406 C 16.386719 -35.410156 14.65625 -36.503906 12.742188 -36.503906 C 8.921875 -36.503906 6.828125 -31.675781 4.460938 -25.941406 C 4.824219 -29.492188 5.097656 -32.496094 5.460938 -35.046875 C 5.734375 -36.046875 4.914062 -37.046875 3.914062 -37.140625 C 2.914062 -37.414062 2.003906 -36.59375 1.910156 -35.589844 C 0.910156 -28.582031 0.273438 -19.933594 0 -14.109375 C -0.0898438 -13.109375 0.726562 -12.199219 1.820312 -12.199219 Z M 1.820312 -12.199219" transform="translate(188.74 66.37)"/></g></g></g></g></svg>